<?xml version="1.0" encoding="utf-8"?>
<!-- Generator: Adobe Illustrator 24.2.3, SVG Export Plug-In . SVG Version: 6.00 Build 0)  -->
<svg version="1.1" id="Layer_1" xmlns="http://www.w3.org/2000/svg" xmlns:xlink="http://www.w3.org/1999/xlink" x="0px" y="0px"
	 viewBox="0 0 496.34 56" style="enable-background:new 0 0 496.34 56;" xml:space="preserve">
<style type="text/css">
	.st0{fill:#FF960C;}
	.st1{fill:#009AF6;}
	.st2{fill:#74B800;}
	.st3{fill:#FF3F3F;}
	.st4{fill:#231F20;stroke:#231F20;stroke-width:0.0634;stroke-miterlimit:10;}
	.st5{fill:#231F20;}
</style>
<g>
	<g>
		<rect x="113.09" y="0.85" class="st0" width="20.92" height="54.01"/>
		<rect y="0.85" class="st1" width="20.92" height="54.01"/>
		<rect x="37.74" y="0.85" class="st2" width="20.92" height="54.01"/>
		<rect x="75.41" y="0.85" class="st3" width="20.92" height="54.01"/>
	</g>
	<g>
		<path class="st4" d="M163.55,55.97c-1.35,0-2.44-0.47-3.24-1.27c-1.22-1.22-1.29-2.35-1.29-5.31c0-2.97,0.07-4.09,1.29-5.31
			c0.8-0.8,1.89-1.27,3.24-1.27c2.35,0,4.04,1.44,4.49,3.86h-1.42c-0.35-1.6-1.46-2.62-3.08-2.62c-0.87,0-1.64,0.31-2.24,0.91
			c-0.82,0.84-0.91,1.78-0.91,4.44c0,2.66,0.09,3.6,0.91,4.44c0.6,0.6,1.37,0.91,2.24,0.91c1.62,0,2.77-1.02,3.11-2.62h1.38
			C167.59,54.53,165.88,55.97,163.55,55.97z"/>
		<path class="st4" d="M177.19,55.86V42.9h1.38v11.72h6.62v1.24H177.19z"/>
		<path class="st4" d="M200.25,54.69c-0.8,0.8-1.87,1.27-3.22,1.27c-1.35,0-2.44-0.47-3.24-1.27c-1.22-1.22-1.29-2.35-1.29-5.31
			c0-2.97,0.07-4.09,1.29-5.31c0.8-0.8,1.89-1.27,3.24-1.27c1.35,0,2.42,0.47,3.22,1.27c1.22,1.22,1.31,2.35,1.31,5.31
			C201.56,52.35,201.47,53.48,200.25,54.69z M199.26,44.94c-0.6-0.6-1.36-0.91-2.24-0.91c-0.87,0-1.64,0.31-2.24,0.91
			c-0.82,0.84-0.91,1.78-0.91,4.44c0,2.66,0.09,3.6,0.91,4.44c0.6,0.6,1.37,0.91,2.24,0.91c0.87,0,1.64-0.31,2.24-0.91
			c0.82-0.84,0.91-1.78,0.91-4.44C200.17,46.72,200.08,45.78,199.26,44.94z"/>
		<path class="st4" d="M215.24,55.97c-2.62,0-4.51-1.8-4.51-4.39V42.9h1.38v8.57c0,1.97,1.24,3.26,3.13,3.26s3.15-1.29,3.15-3.26
			V42.9h1.38v8.68C219.77,54.17,217.86,55.97,215.24,55.97z"/>
		<path class="st4" d="M237.27,54.49c-0.87,0.95-1.95,1.36-3.4,1.36h-4.44V42.9h4.44c1.46,0,2.53,0.42,3.4,1.36
			c1.15,1.24,1.15,3.13,1.15,5.11C238.42,51.36,238.42,53.26,237.27,54.49z M236.18,45.09c-0.66-0.73-1.57-0.95-2.55-0.95h-2.82
			v10.48h2.82c0.98,0,1.89-0.22,2.55-0.95c0.84-0.89,0.86-2.49,0.86-4.29C237.04,47.58,237.02,45.98,236.18,45.09z"/>
		<path class="st4" d="M263.16,55.97c-1.35,0-2.44-0.47-3.24-1.27c-1.22-1.22-1.29-2.35-1.29-5.31c0-2.97,0.07-4.09,1.29-5.31
			c0.8-0.8,1.89-1.27,3.24-1.27c2.35,0,4.04,1.44,4.49,3.86h-1.42c-0.35-1.6-1.46-2.62-3.08-2.62c-0.87,0-1.64,0.31-2.24,0.91
			c-0.82,0.84-0.91,1.78-0.91,4.44c0,2.66,0.09,3.6,0.91,4.44c0.6,0.6,1.37,0.91,2.24,0.91c1.62,0,2.77-1.02,3.11-2.62h1.38
			C267.2,54.53,265.49,55.97,263.16,55.97z"/>
		<path class="st4" d="M283.89,54.69c-0.8,0.8-1.87,1.27-3.22,1.27c-1.35,0-2.44-0.47-3.24-1.27c-1.22-1.22-1.29-2.35-1.29-5.31
			c0-2.97,0.07-4.09,1.29-5.31c0.8-0.8,1.89-1.27,3.24-1.27c1.35,0,2.42,0.47,3.22,1.27c1.22,1.22,1.31,2.35,1.31,5.31
			C285.2,52.35,285.1,53.48,283.89,54.69z M282.9,44.94c-0.6-0.6-1.36-0.91-2.24-0.91c-0.87,0-1.64,0.31-2.24,0.91
			c-0.82,0.84-0.91,1.78-0.91,4.44c0,2.66,0.09,3.6,0.91,4.44c0.6,0.6,1.37,0.91,2.24,0.91c0.87,0,1.64-0.31,2.24-0.91
			c0.82-0.84,0.91-1.78,0.91-4.44C283.81,46.72,283.72,45.78,282.9,44.94z"/>
		<path class="st4" d="M304.26,55.86v-9.85l-3.55,7.81h-1.18l-3.6-7.81v9.85h-1.38V42.9h1.38l4.22,9.19l4.11-9.19h1.38v12.96H304.26
			z"/>
		<path class="st4" d="M325.2,55.86v-9.85l-3.55,7.81h-1.18l-3.6-7.81v9.85h-1.38V42.9h1.38l4.22,9.19l4.11-9.19h1.38v12.96H325.2z"
			/>
		<path class="st4" d="M340.76,55.97c-2.62,0-4.51-1.8-4.51-4.39V42.9h1.38v8.57c0,1.97,1.24,3.26,3.13,3.26s3.15-1.29,3.15-3.26
			V42.9h1.38v8.68C345.29,54.17,343.38,55.97,340.76,55.97z"/>
		<path class="st4" d="M363.21,55.86l-6.88-10.39v10.39h-1.38V42.9h1.31l6.88,10.35V42.9h1.38v12.96H363.21z"/>
		<path class="st4" d="M374.36,55.86V42.9h1.38v12.96H374.36z"/>
		<path class="st4" d="M389.63,55.97c-1.35,0-2.44-0.47-3.24-1.27c-1.22-1.22-1.29-2.35-1.29-5.31c0-2.97,0.07-4.09,1.29-5.31
			c0.8-0.8,1.89-1.27,3.24-1.27c2.35,0,4.04,1.44,4.49,3.86h-1.42c-0.35-1.6-1.46-2.62-3.08-2.62c-0.87,0-1.64,0.31-2.24,0.91
			c-0.82,0.84-0.91,1.78-0.91,4.44c0,2.66,0.09,3.6,0.91,4.44c0.6,0.6,1.37,0.91,2.24,0.91c1.62,0,2.77-1.02,3.11-2.62h1.38
			C393.67,54.53,391.96,55.97,389.63,55.97z"/>
		<path class="st4" d="M410.64,55.86l-1.04-2.93h-5.66l-1.04,2.93h-1.47l4.77-12.96h1.16l4.75,12.96H410.64z M406.8,44.89
			l-2.44,6.84h4.84L406.8,44.89z"/>
		<path class="st4" d="M423.01,44.14v11.72h-1.38V44.14h-3.75V42.9h8.88v1.24H423.01z"/>
		<path class="st4" d="M435.28,55.86V42.9h1.38v12.96H435.28z"/>
		<path class="st4" d="M453.76,54.69c-0.8,0.8-1.87,1.27-3.22,1.27c-1.35,0-2.44-0.47-3.24-1.27c-1.22-1.22-1.29-2.35-1.29-5.31
			c0-2.97,0.07-4.09,1.29-5.31c0.8-0.8,1.89-1.27,3.24-1.27c1.35,0,2.42,0.47,3.22,1.27c1.22,1.22,1.31,2.35,1.31,5.31
			C455.07,52.35,454.98,53.48,453.76,54.69z M452.78,44.94c-0.6-0.6-1.36-0.91-2.24-0.91c-0.87,0-1.64,0.31-2.24,0.91
			c-0.82,0.84-0.91,1.78-0.91,4.44c0,2.66,0.09,3.6,0.91,4.44c0.6,0.6,1.37,0.91,2.24,0.91c0.87,0,1.64-0.31,2.24-0.91
			c0.82-0.84,0.91-1.78,0.91-4.44C453.69,46.72,453.6,45.78,452.78,44.94z"/>
		<path class="st4" d="M472.68,55.86l-6.88-10.39v10.39h-1.38V42.9h1.31l6.88,10.35V42.9h1.38v12.96H472.68z"/>
		<path class="st4" d="M487.16,55.97c-1.93,0-3.22-0.49-4.42-1.71l0.93-0.93c1.07,1.07,2.07,1.4,3.53,1.4c1.91,0,3.08-0.87,3.08-2.4
			c0-0.69-0.2-1.24-0.64-1.62c-0.4-0.36-0.76-0.49-1.69-0.64l-1.51-0.22c-1.02-0.16-1.78-0.47-2.37-0.98c-0.66-0.58-1-1.38-1-2.44
			c0-2.2,1.58-3.64,4.15-3.64c1.66,0,2.75,0.44,3.86,1.42l-0.89,0.89c-0.78-0.75-1.67-1.13-3.02-1.13c-1.75,0-2.75,0.96-2.75,2.42
			c0,0.64,0.18,1.16,0.58,1.51c0.4,0.35,1.02,0.56,1.69,0.67l1.51,0.24c1.2,0.18,1.77,0.4,2.35,0.93c0.69,0.6,1.09,1.47,1.09,2.55
			C491.64,54.57,489.88,55.97,487.16,55.97z"/>
	</g>
	<g>
		<rect x="159.83" y="0.26" class="st5" width="6.32" height="32.39"/>
		<polygon class="st5" points="200.33,32.65 187.5,12.77 187.5,32.65 181.17,32.65 181.17,0.26 186.82,0.26 199.65,20.09 
			199.65,0.26 205.97,0.26 205.97,32.65 		"/>
		<polygon class="st5" points="233.37,5.9 233.37,32.65 227.04,32.65 227.04,5.9 218.58,5.9 218.58,0.26 241.83,0.26 241.83,5.9 		
			"/>
		<polygon class="st5" points="254.44,32.65 254.44,0.26 275.78,0.26 275.78,5.9 260.77,5.9 260.77,13.5 273.55,13.5 273.55,19.14 
			260.77,19.14 260.77,27.01 275.78,27.01 275.78,32.65 		"/>
		<path class="st5" d="M306.63,32.65l-6.32-12.92h-4.55v12.92h-6.32V0.26h12.69c6.6,0,10.51,4.5,10.51,9.92
			c0,4.55-2.78,7.37-5.91,8.51l7.23,13.97H306.63z M301.72,5.9h-5.96v8.55h5.96c2.77,0,4.6-1.78,4.6-4.28
			C306.31,7.67,304.49,5.9,301.72,5.9"/>
		<polygon class="st5" points="349.68,32.65 349.68,13.77 343.49,26.05 339.22,26.05 332.98,13.77 332.98,32.65 326.66,32.65 
			326.66,0.26 332.89,0.26 341.36,17.77 349.77,0.26 356,0.26 356,32.65 		"/>
		<polygon class="st5" points="371.03,32.65 371.03,0.26 392.37,0.26 392.37,5.9 377.35,5.9 377.35,13.5 390.14,13.5 390.14,19.14 
			377.35,19.14 377.35,27.01 392.37,27.01 392.37,32.65 		"/>
		<path class="st5" d="M426.27,29.56c-2.14,2.14-5.18,3.09-8.55,3.09h-11.69V0.26h11.69c3.37,0,6.41,0.96,8.55,3.09
			c3.64,3.64,3.28,8.1,3.28,12.97S429.91,25.92,426.27,29.56 M421.85,7.9c-1.09-1.32-2.55-2-4.73-2h-4.77v21.11h4.77
			c2.18,0,3.64-0.68,4.73-2c1.19-1.45,1.37-3.78,1.37-8.69C423.22,11.4,423.04,9.36,421.85,7.9"/>
		<rect x="443.48" y="0.26" class="st5" width="6.32" height="32.39"/>
		<path class="st5" d="M483.48,32.64l-1.91-5.74h-11.53l-1.96,5.74h-6.61l11.8-32.44h4.97l11.85,32.44H483.48z M475.92,9.77
			l-4.1,11.8h8.06L475.92,9.77z"/>
		<g>
			<path class="st5" d="M492.24,8.21c-2.27,0-4.1-1.84-4.1-4.1s1.84-4.1,4.1-4.1c2.27,0,4.1,1.84,4.1,4.1S494.5,8.21,492.24,8.21z
				 M492.24,0.76c-1.84,0-3.29,1.47-3.29,3.34s1.45,3.34,3.29,3.34c1.84,0,3.28-1.47,3.28-3.34S494.07,0.76,492.24,0.76z
				 M493.1,6.31l-0.91-1.76h-0.57v1.76h-0.82V1.88h1.67c0.84,0,1.43,0.62,1.43,1.36c0,0.62-0.39,1.03-0.87,1.2l0.99,1.87H493.1z
				 M492.37,2.57h-0.75v1.34h0.75c0.43,0,0.73-0.3,0.73-0.67C493.1,2.87,492.8,2.57,492.37,2.57z"/>
		</g>
	</g>
</g>
</svg>
